<svg xmlns="http://www.w3.org/2000/svg" viewBox="0 0 579.97 96.64"><defs><style>.cls-1{fill:#a32035;}.cls-2{fill:#fff;}</style></defs><title>HjaKo-p</title><g id="Hendrikson"><path class="cls-1" d="M200,336.33A48.33,48.33,0,0,1,248.33,288h0a34,34,0,0,1,4.75.22,22.34,22.34,0,0,1-15,18c-.77.26-.73,1.06,0,1.25a28.45,28.45,0,0,1,22.15,28.21,25.21,25.21,0,0,1-1.14,8.23c-.26.8.53,1.25,1.11.63a23.75,23.75,0,0,0,5.19-9.38c1.87-6-.28-10.49-3.08-15.09-1.38-2.3-2.94-4.62-4.19-7.12a22.4,22.4,0,0,1-2.49-8.38,20,20,0,0,1,.68-6.58c.52-2.05,1.23-4,1.87-5.91a28.44,28.44,0,0,0,.78-2.84,48.37,48.37,0,0,1,28.14,75.83A22.29,22.29,0,0,1,278.78,343c.15-.78-.56-1.14-1.1-.56a28.44,28.44,0,0,1-35.52,5.08,25.4,25.4,0,0,1-6.56-5.1c-.56-.63-1.35-.17-1.09.64a24.08,24.08,0,0,0,5.61,9.12c4.23,4.62,9.24,5,14.62,4.86,2.69,0,5.46-.24,8.26,0a22.46,22.46,0,0,1,8.49,2,20.3,20.3,0,0,1,5.37,3.87c1.53,1.48,2.84,3.08,4.18,4.56q1.05,1.16,2.19,2.19a48.32,48.32,0,0,1-79.17-14,22.43,22.43,0,0,1,22.43,4.1c.62.52,1.27.09,1-.68A28.45,28.45,0,0,1,241,325.82a25.45,25.45,0,0,1,7.68-3.12c.83-.19.83-1.09,0-1.27a23.87,23.87,0,0,0-10.73.35c-6.11,1.35-8.93,5.5-11.51,10.23-1.29,2.35-2.53,4.84-4.1,7.2a22.3,22.3,0,0,1-6,6.32,20.11,20.11,0,0,1-6,2.73c-2.06.56-4.09.91-6.06,1.34-.74.17-1.49.34-2.22.54a48.37,48.37,0,0,1-2-13.83" transform="translate(-200 -288)"/><path class="cls-1" d="M692.81,347.26a11.22,11.22,0,0,1-15.46,3.58l-.51-.34a7,7,0,0,1-2.39-5.61,7.12,7.12,0,0,1,4.38-7c1,.82,2.13,1.68,3.4,2.56s2.69,1.87,4.32,2.84Zm-1.35,7.89a13.28,13.28,0,0,0,5.61-5.25l3.74,2.34h.39l2.27-4.17v-.43L699,345a29.88,29.88,0,0,0,.8-7.24v-4.15h-5.29v6.53a19.25,19.25,0,0,1-.18,2.06l-5.24-3.09a49.12,49.12,0,0,1-4.92-3.18,20.18,20.18,0,0,1-3.34-3,9.78,9.78,0,0,1-1.87-3,8.7,8.7,0,0,1-.6-3.27q0-6.53,7.18-6.54a22.48,22.48,0,0,1,8,1.74h.33l.86-4.06v-.26a31,31,0,0,0-5.1-1.4,23.25,23.25,0,0,0-4.56-.43,14,14,0,0,0-9.26,2.67,9.49,9.49,0,0,0-3.21,7.74,14,14,0,0,0,.69,4.54,12.8,12.8,0,0,0,2.43,4.1,10.62,10.62,0,0,0-7.07,10.43,11.56,11.56,0,0,0,1,4.88,10.12,10.12,0,0,0,2.9,3.74,13.42,13.42,0,0,0,4.56,2.33,21.16,21.16,0,0,0,6,.81,18.63,18.63,0,0,0,8.44-1.78" transform="translate(-200 -288)"/><path class="cls-2" d="M624.16,356.33h4.17V323.76h.32l2.86,4.7,19.38,27.87H655v-40H650.8V349h-.24l-2.92-4.69-19.33-27.93h-4.06Zm-32.87-7.48c-1.87-2.65-2.84-6.84-2.84-12.52s1-9.93,2.86-12.62a11.63,11.63,0,0,1,16.4-1.21,10.64,10.64,0,0,1,1.21,1.21c1.87,2.69,2.86,6.9,2.86,12.58s-.95,9.87-2.84,12.53a11.75,11.75,0,0,1-16.57,1.08,13.76,13.76,0,0,1-1.08-1.08m21,2.82q4.14-5.14,4.15-15.35t-4.15-15.39a17,17,0,0,0-24-.41l-.41.41q-4.15,5.16-4.15,15.43t4.15,15.35a17.11,17.11,0,0,0,24.19.22l.23-.22m-37.49,2.37a10,10,0,0,0,3.48-8.17,11.08,11.08,0,0,0-.79-4.41,9.13,9.13,0,0,0-2.22-3.2,13.94,13.94,0,0,0-3.55-2.32,37.72,37.72,0,0,0-4.68-1.87,29.24,29.24,0,0,1-4-1.45,10.81,10.81,0,0,1-2.67-1.65,5.68,5.68,0,0,1-1.51-2,6.6,6.6,0,0,1-.49-2.6,6.24,6.24,0,0,1,2.34-5.12,9.81,9.81,0,0,1,6.35-1.87,28.92,28.92,0,0,1,4.36.36c1.64.22,3.31.54,5,.93l.17-3.89a43.26,43.26,0,0,0-5.27-1,34.92,34.92,0,0,0-4.56-.3,17.25,17.25,0,0,0-5.43.79,12.38,12.38,0,0,0-4.13,2.2,9.66,9.66,0,0,0-2.65,3.46,10.78,10.78,0,0,0-.92,4.51,12.34,12.34,0,0,0,.66,4.17,8.22,8.22,0,0,0,2,3.12,13.21,13.21,0,0,0,3.46,2.37,29.17,29.17,0,0,0,4.94,1.87,38.44,38.44,0,0,1,3.64,1.31,12.59,12.59,0,0,1,2.85,1.63,6.56,6.56,0,0,1,1.87,2.15,6.63,6.63,0,0,1,.61,3,6,6,0,0,1-2.32,5.1,10.86,10.86,0,0,1-6.69,1.76,19.14,19.14,0,0,1-2.67-.13c-1-.13-1.87-.22-2.92-.39s-2-.34-3-.56-1.87-.45-2.8-.69l-.17,4c.9.26,1.87.48,2.92.71s2.09.39,3.14.54,2.07.26,3.08.34,1.87.15,2.81.15A15.16,15.16,0,0,0,574.9,354m-54.82,2.2h4.58V338h6.1l13.52,18.36h5.23L534.44,336v-.32l14.1-19.29h-5.29L530.42,334h-5.76V316.36h-4.58Zm-13.87,0h4.6V316.36h-4.6Zm-27-18.6c-1-.09-1.87-.19-2.45-.3V320c.86-.11,1.87-.21,2.82-.3s2-.13,2.79-.13c4.11,0,7,.71,8.86,2.13a8.3,8.3,0,0,1,2.69,6.94,12.19,12.19,0,0,1-.64,4.19,6.34,6.34,0,0,1-2,2.82,9.48,9.48,0,0,1-3.59,1.61,31.24,31.24,0,0,1-8.43.37m15.42,18.6h5l-9.24-15.78a11.15,11.15,0,0,0,6.23-4.17,13.19,13.19,0,0,0,2-7.64q0-6.76-4.06-9.85c-2.69-2.06-7-3.13-12.95-3.13-1.52,0-3.07.08-4.66.23s-3.18.35-4.8.65v39.69h4.54V341.23l2.62.18H484a9.9,9.9,0,0,0,2.11-.15Zm-52.2-3.33a22,22,0,0,1-3-.33V320.21c1-.13,2.06-.24,3.16-.32s2.11-.11,3.05-.11q7.49,0,10.82,3.93c2.25,2.6,3.39,6.82,3.39,12.65s-1.18,10.14-3.55,12.77-6.06,4-11.09,4h-2.77m10.79,2.82a15.59,15.59,0,0,0,6.43-3.74,15.08,15.08,0,0,0,3.74-6.41,32.1,32.1,0,0,0,1.2-9.35q0-10.56-4.64-15.52T445.25,316a44.8,44.8,0,0,0-4.79.19c-1.85.18-3.74.29-5.61.52v39.8a35.8,35.8,0,0,0,4,.49c1.57.11,3.25.17,5,.17a31.78,31.78,0,0,0,9.35-1.22m-58.48.51h4.17V323.76h.32l2.86,4.7,19.39,27.87h4.11v-40h-4.21V349H421l-2.92-4.69-19.39-27.93h-4.06Zm-31.28,0h24.31v-3.89H368V338.12h17.76v-3.89H368v-14h19.27v-3.89H363.4Zm-39.11,0h4.58V337.9h20.57v18.53h4.58V316.36h-4.51v17.56H329V316.36h-4.58Z" transform="translate(-200 -288)"/><path class="cls-2" d="M730.59,336v-.32l14.1-19.29H739.4L726.57,334h-5.75V316.36h-4.59v40h4.59V338h6.07l13.54,18.36h5.23Zm44.68.43c0,5.61-.93,9.87-2.84,12.53A11.74,11.74,0,0,1,755.86,350a13.76,13.76,0,0,1-1.08-1.08c-1.86-2.66-2.84-6.84-2.84-12.53s1-9.92,2.86-12.62a11.64,11.64,0,0,1,16.4-1.21,11.52,11.52,0,0,1,1.21,1.21c1.87,2.7,2.86,6.9,2.86,12.58m4.7,0q0-10.2-4.15-15.38a17,17,0,0,0-24-.41l-.41.41q-4.15,5.16-4.15,15.42t4.15,15.35a17.11,17.11,0,0,0,24.19.23l.23-.23Q780,346.61,780,336.4" transform="translate(-200 -288)"/></g></svg>